<?xml version="1.0" encoding="UTF-8"?>
<svg id="Calque_1" data-name="Calque 1" xmlns="http://www.w3.org/2000/svg" viewBox="0 0 334.39 445.26">
  <path d="M202.23,156.5c103.2,34.32,119.8-31.08,116.16-56.07-3.64-24.99-22.3-42.96-41.69-40.14-16.07,2.34-27.59,18.25-28.98,37.86l-21.38,2.47-12.87-17.25c13.32-14.47,16.99-33.76,7.67-47.06-11.24-16.04-37.12-17.29-57.8-2.8-20.68,14.49-56.88,71.43,38.88,122.99ZM275.49,86.71c5.22.03,9.42,5.86,9.38,13.03-.04,7.16-4.31,12.94-9.54,12.91-5.22-.03-9.42-5.86-9.38-13.03.04-7.16,4.31-12.94,9.54-12.91ZM186.65,56.75c4.8-5.31,11.84-6.78,15.71-3.28s3.12,10.65-1.68,15.96c-4.8,5.31-11.84,6.78-15.71,3.28-3.87-3.5-3.12-10.65,1.68-15.96Z" style="fill: none;"/>
  <path d="M265.87,354.79c-5.3-8.8-2.99-19.26-1.27-28.5,1.49-6.97,3.48-13.71,5.16-20.4,3.18-13.41,4.76-27.43,6.21-41.19-.04,14.07.01,28.02-1.93,42.04-1.28,10.66-8.52,36.65-.12,44.19,2.05,1.44,4.7,2.37,7.64,2.92,18.67,3.5,37.45-6.97,44.75-24.51,6.11-14.68,8.66-37.97-.85-74.61-5.44-20.97-6.99-42.78-4.25-64.27,2.1-16.48,4.06-30.06,7.56-41.45,4.38-14.25,6.38-29.17,5.33-44.04-4.97-70.25-68.13-96.21-68.13-96.21,0,0-62.21-28.16-116.74,16.42-11.54,9.43-21.03,21.12-28.39,34.08-9.68,17.06-30.37,52.06-51.56,78.8,0,0-41.9,39.74-56.69,89.6-9.08,30.61-.83,64.18,22.76,85.7.82.75,1.67,1.49,2.52,2.21,5.86,4.93,12.77,8.61,19.68,8.22,15.74-1.36,23.69-20.51,21.03-34.63-1.77-16.74-2.1-33.46-2.17-50.24,1.35,16.6,2.98,33.31,6,49.66.95,4.25,1.5,8.76.96,13.1-1.99,19.97-18.79,35.93-39.29,28.18-16.79-6.85-30.44-21.26-40.58-37.55-6.01,26.59-9.93,78.99,37.48,117.38,0,0-32.5,14.72-37.28,33.5,0,0,70.79,10.73,109.69-16.75h79.97c38.9,27.48,109.69,16.75,109.69,16.75-4.78-18.78-37.28-33.5-37.28-33.5,16.72-13.54,27.04-28.83,33.15-44.11-11.9,1.12-25.49-.95-33.07-10.8ZM163.34,33.51c20.68-14.49,46.56-13.24,57.8,2.8,9.32,13.3,5.65,32.6-7.67,47.06l12.87,17.25,21.38-2.47c1.39-19.62,12.91-35.52,28.98-37.86,19.38-2.82,38.05,15.15,41.69,40.14,3.64,24.99-12.96,90.38-116.16,56.07-95.76-51.56-59.56-108.49-38.88-122.99ZM182.57,387.55c-83.03-42.95-88.75-176.94-88.75-176.94,29.2,10.31,88.75-14.89,88.75-14.89,0,0,59.55,25.19,88.75,14.89,0,0-5.73,133.99-88.75,176.94Z" style="fill: #010101;"/>
  <path d="M275.33,112.64c5.22.03,9.49-5.75,9.54-12.91.04-7.16-4.15-12.99-9.38-13.03s-9.49,5.75-9.54,12.91c-.04,7.16,4.15,12.99,9.38,13.03Z" style="fill: #010101;"/>
  <path d="M200.68,69.43c4.8-5.31,5.56-12.46,1.68-15.96s-10.91-2.04-15.71,3.28c-4.8,5.31-5.56,12.46-1.68,15.96,3.87,3.5,10.91,2.04,15.71-3.28Z" style="fill: #010101;"/>
</svg>