<?xml version="1.0" encoding="UTF-8"?>
<svg id="Calque_1" data-name="Calque 1" xmlns="http://www.w3.org/2000/svg" viewBox="0 0 446 339.21">
  <rect y="180.16" width="446" height="159.05" style="fill: #7ecde7;"/>
  <polygon points="245.78 6.8 227.84 3.27 211.96 11.1 200 32.72 181.14 58.72 172.79 74.14 171.17 84.9 179.99 104.27 203.68 116.23 230.83 117.84 256.97 106.18 262.75 94.61 260.05 51.82 264.65 39.16 264.65 21.67 245.78 6.8" style="fill: #fff;"/>
  <polygon points="34.2 216.55 67.47 154.17 142.31 199.91 69.54 216.55 34.2 216.55" style="fill: #7ac8c9;"/>
  <polygon points="67.47 154.17 130.88 121.95 209.88 203.03 142.31 199.91 67.47 154.17" style="fill: #669798;"/>
  <polygon points="130.88 121.95 256.66 121.95 226.51 203.03 209.88 203.03 130.88 121.95" style="fill: #e9f5f5;"/>
  <polygon points="279.53 110.51 256.66 121.95 226.51 203.03 253.02 208.23 312.8 180.16 279.53 110.51" style="fill: #9cd4d5;"/>
  <polygon points="379.33 110.51 279.53 110.51 312.8 180.16 399.49 154.17 379.33 110.51" style="fill: #e9f5f5;"/>
  <polygon points="364.77 216.55 328.39 216.55 312.8 180.16 399.49 154.17 364.77 216.55" style="fill: #7ac8c9;"/>
  <polygon points="253.02 208.23 312.8 180.16 328.39 216.55 253.02 208.23" style="fill: #669798;"/>
  <polygon points="34.2 216.55 67.47 339.21 110.09 339.21 69.54 216.55 34.2 216.55" style="fill: #5895aa;"/>
  <polygon points="142.31 199.91 69.54 216.55 110.09 339.21 200.53 339.21 142.31 199.91" style="fill: #84b0bf;"/>
  <polygon points="226.51 203.03 209.88 203.03 142.31 199.91 200.53 339.21 226.51 203.03" style="fill: #bfe4f1;"/>
  <polygon points="328.39 216.55 253.02 208.23 200.53 339.21 264.46 339.21 328.39 216.55" style="fill: #4590a9;"/>
  <polygon points="364.77 216.55 376.21 339.21 264.46 339.21 328.39 216.55 364.77 216.55" style="fill: #98d5ea;"/>
  <polygon points="253.02 208.23 226.51 203.03 200.53 339.21 253.02 208.23" style="fill: #7ecde7;"/>
  <g>
    <path d="M228.88,45.45c29.97,9.97,34.79-9.03,33.74-16.28-1.06-7.26-6.48-12.48-12.11-11.66-4.67.68-8.01,5.3-8.42,11l-6.21.72-3.74-5.01c3.87-4.2,4.94-9.8,2.23-13.67-3.26-4.66-10.78-5.02-16.79-.81-6.01,4.21-16.52,20.75,11.29,35.72ZM250.16,25.18c1.52,0,2.74,1.7,2.72,3.78-.01,2.08-1.25,3.76-2.77,3.75-1.52,0-2.74-1.7-2.72-3.78s1.25-3.76,2.77-3.75ZM224.36,16.48c1.4-1.54,3.44-1.97,4.56-.95s.91,3.09-.49,4.64c-1.4,1.54-3.44,1.97-4.56.95-1.13-1.02-.91-3.09.49-4.64Z" style="fill: none;"/>
    <path d="M247.37,103.04c-1.54-2.56-.87-5.59-.37-8.28.43-2.02,1.01-3.98,1.5-5.92.92-3.89,1.38-7.97,1.8-11.96-.01,4.09,0,8.14-.56,12.21-.37,3.09-2.47,10.64-.03,12.84.59.42,1.37.69,2.22.85,5.42,1.02,10.88-2.02,13-7.12,1.77-4.26,2.51-11.03-.25-21.67-1.58-6.09-2.03-12.42-1.23-18.67.61-4.79,1.18-8.73,2.2-12.04,1.27-4.14,1.85-8.47,1.55-12.79-1.44-20.4-19.79-27.94-19.79-27.94,0,0-18.07-8.18-33.9,4.77-3.35,2.74-6.11,6.13-8.25,9.9-2.81,4.95-8.82,15.12-14.97,22.89,0,0-12.17,11.54-16.46,26.02-2.64,8.89-.24,18.64,6.61,24.89.24.22.48.43.73.64,1.7,1.43,3.71,2.5,5.72,2.39,4.57-.39,6.88-5.96,6.11-10.06-.51-4.86-.61-9.72-.63-14.59.39,4.82.87,9.67,1.74,14.42.28,1.23.44,2.55.28,3.8-.58,5.8-5.46,10.44-11.41,8.18-4.88-1.99-8.84-6.18-11.79-10.91-1.75,7.72-2.88,22.94,10.89,34.09,0,0-9.44,4.28-10.83,9.73,0,0,20.56,3.12,31.86-4.86h23.23c11.3,7.98,31.86,4.86,31.86,4.86-1.39-5.45-10.83-9.73-10.83-9.73,4.86-3.93,7.85-8.37,9.63-12.81-3.46.33-7.4-.28-9.6-3.14ZM217.59,9.73c6.01-4.21,13.52-3.85,16.79.81,2.71,3.86,1.64,9.47-2.23,13.67l3.74,5.01,6.21-.72c.4-5.7,3.75-10.32,8.42-11,5.63-.82,11.05,4.4,12.11,11.66,1.06,7.26-3.76,26.25-33.74,16.28-27.81-14.97-17.3-31.51-11.29-35.72ZM223.17,112.56c-24.11-12.47-25.78-51.39-25.78-51.39,8.48,2.99,25.78-4.32,25.78-4.32,0,0,17.3,7.32,25.78,4.32,0,0-1.66,38.92-25.78,51.39Z" style="fill: #010101;"/>
    <path d="M250.12,32.72c1.52,0,2.76-1.67,2.77-3.75.01-2.08-1.21-3.77-2.72-3.78s-2.76,1.67-2.77,3.75,1.21,3.77,2.72,3.78Z" style="fill: #010101;"/>
    <path d="M228.43,20.17c1.4-1.54,1.61-3.62.49-4.64s-3.17-.59-4.56.95c-1.4,1.54-1.61,3.62-.49,4.64,1.12,1.02,3.17.59,4.56-.95Z" style="fill: #010101;"/>
  </g>
</svg>