<?xml version="1.0" encoding="UTF-8"?>
<svg id="Calque_1" data-name="Calque 1" xmlns="http://www.w3.org/2000/svg" viewBox="0 0 446 292.53">
  <rect y="133.48" width="446" height="159.05" style="fill: #7ecde7;"/>
  <polygon points="46.31 160.88 46.31 179.17 149.75 203.07 149.75 179.17 46.31 160.88" style="fill: #7ac8c9;"/>
  <polygon points="337.03 156.74 149.75 179.17 149.75 203.07 337.03 171.98 337.03 156.74" style="fill: #669798;"/>
  <rect x="337.03" y="156.74" width="61.34" height="15.24" style="fill: #9cd4d5;"/>
  <polygon points="46.31 160.88 84.08 133.87 363.55 133.48 398.37 156.74 337.03 156.74 149.75 179.17 46.31 160.88" style="fill: #e9f5f5;"/>
  <path d="M81.73,146.61C81.73,65.64,147.37,0,228.34,0s146.61,65.64,146.61,146.61" style="fill: #e9f5f5;"/>
  <path d="M61.71,150.6c0-31.9,25.86-57.76,57.76-57.76s57.76,25.86,57.76,57.76" style="fill: #c5e5e7;"/>
  <path d="M78.63,150.6c0-22.55,18.28-40.84,40.84-40.84s40.84,18.28,40.84,40.84" style="fill: #7ac8c9;"/>
  <g>
    <polygon points="209.64 39.57 227.59 36.05 243.46 43.87 255.43 65.49 274.29 91.49 282.64 106.92 284.25 117.67 275.44 137.04 251.74 149.01 224.6 150.62 198.46 138.95 192.68 127.38 195.38 84.59 190.78 71.94 190.78 54.44 209.64 39.57" style="fill: #fff;"/>
    <g>
      <path d="M237.84,42.51c-6.01-4.21-13.52-3.85-16.79.81-2.71,3.86-1.64,9.47,2.23,13.67l-3.74,5.01-6.21-.72c-.4-5.7-3.75-10.32-8.42-11-5.63-.82-11.05,4.4-12.11,11.66-1.06,7.26,3.76,26.25,33.74,16.28,27.81-14.97,17.3-31.51,11.29-35.72ZM208.03,61.71c.01,2.08-1.21,3.77-2.72,3.78-1.52,0-2.76-1.67-2.77-3.75-.01-2.08,1.21-3.77,2.72-3.78s2.76,1.67,2.77,3.75ZM231.56,53.89c-1.12,1.02-3.17.59-4.56-.95-1.4-1.54-1.61-3.62-.49-4.64s3.17-.59,4.56.95c1.4,1.54,1.61,3.62.49,4.64Z" style="fill: none;"/>
      <path d="M198.46,138.95c1.78,4.44,4.77,8.88,9.63,12.81,0,0-9.44,4.28-10.83,9.73,0,0,20.56,3.12,31.86-4.86h23.23c11.3,7.98,31.86,4.86,31.86,4.86-1.39-5.45-10.83-9.73-10.83-9.73,13.77-11.15,12.63-26.37,10.89-34.09-2.95,4.73-6.91,8.92-11.79,10.91-5.95,2.25-10.83-2.38-11.41-8.18-.16-1.26,0-2.57.28-3.8.88-4.75,1.35-9.6,1.74-14.42-.02,4.87-.12,9.73-.63,14.59-.77,4.1,1.54,9.66,6.11,10.06,2.01.11,4.01-.95,5.72-2.39.25-.21.49-.42.73-.64,6.85-6.25,9.25-16,6.61-24.89-4.3-14.48-16.46-26.02-16.46-26.02-6.15-7.77-12.16-17.93-14.97-22.89-2.14-3.76-4.89-7.16-8.25-9.9-15.84-12.95-33.9-4.77-33.9-4.77,0,0-18.34,7.54-19.79,27.94-.31,4.32.27,8.65,1.55,12.79,1.02,3.31,1.59,7.25,2.2,12.04.8,6.24.35,12.58-1.23,18.67-2.76,10.64-2.02,17.41-.25,21.67,2.12,5.09,7.57,8.14,13,7.12.85-.16,1.63-.43,2.22-.85,2.44-2.19.34-9.74-.03-12.84-.56-4.07-.55-8.13-.56-12.21.42,4,.88,8.07,1.8,11.96.49,1.94,1.07,3.9,1.5,5.92.5,2.68,1.17,5.72-.37,8.28-2.2,2.86-6.15,3.46-9.6,3.14ZM226.54,78.23c-29.97,9.97-34.79-9.03-33.74-16.28,1.06-7.26,6.48-12.48,12.11-11.66,4.67.68,8.01,5.3,8.42,11l6.21.72,3.74-5.01c-3.87-4.2-4.94-9.8-2.23-13.67,3.26-4.66,10.78-5.02,16.79-.81,6.01,4.21,16.52,20.75-11.29,35.72ZM206.48,93.94c8.48,2.99,25.78-4.32,25.78-4.32,0,0,17.3,7.32,25.78,4.32,0,0-1.66,38.92-25.78,51.39-24.11-12.47-25.78-51.39-25.78-51.39Z" style="fill: #010101;"/>
      <path d="M205.31,65.49c-1.52,0-2.76-1.67-2.77-3.75-.01-2.08,1.21-3.77,2.72-3.78s2.76,1.67,2.77,3.75-1.21,3.77-2.72,3.78Z" style="fill: #010101;"/>
      <path d="M226.99,52.94c-1.4-1.54-1.61-3.62-.49-4.64s3.17-.59,4.56.95c1.4,1.54,1.61,3.62.49,4.64-1.12,1.02-3.17.59-4.56-.95Z" style="fill: #010101;"/>
    </g>
  </g>
  <polygon points="46.31 179.17 70.13 292.53 149.75 292.53 149.75 203.07 46.31 179.17" style="fill: #98d5ea;"/>
  <polygon points="337.03 171.98 149.75 203.07 149.75 292.53 286.45 292.53 337.03 171.98" style="fill: #aeddee;"/>
  <polygon points="398.37 171.98 337.03 171.98 286.45 292.53 383.91 292.53 398.37 171.98" style="fill: #98d5ea;"/>
</svg>