<?xml version="1.0" encoding="UTF-8"?>
<svg id="Calque_1" data-name="Calque 1" xmlns="http://www.w3.org/2000/svg" viewBox="0 0 300.38 300.38">
  <path d="M196.11,7.18C183.06,2.99,169.23.56,154.89.12c-2.69-.13-4.32-.12-4.64-.12-.02,0-.04,0-.07,0s-.04,0-.07,0c-.32,0-1.94-.01-4.64.12-14.34.44-28.17,2.87-41.22,7.06C43.79,26.59,0,83.26,0,150.19s47.19,127.91,111.26,145.06c12.42,3.32,25.46,5.12,38.93,5.12s26.51-1.8,38.93-5.12c64.07-17.15,111.26-75.59,111.26-145.06S256.59,26.59,196.11,7.18ZM150.19,241.56C-12.48,227.46,3.54,127.45,23.43,95.16c19.89-32.28,56.3-45.95,81.34-30.53,20.76,12.79,27.18,41.57,17.42,69.43l28,16.12,28-16.12c-9.76-27.86-3.34-56.64,17.42-69.43,25.04-15.42,61.45-1.76,81.34,30.53,19.89,32.28,35.91,132.29-126.76,146.39Z" style="fill: #010101;"/>
  <path d="M209.66,101.77c-7.22,3.06-9.66,13.57-5.47,23.47s13.45,15.44,20.67,12.38c7.22-3.06,9.67-13.57,5.47-23.47-4.2-9.9-13.45-15.44-20.67-12.38Z" style="fill: #010101;"/>
  <path d="M89.09,99.47c-7.42-2.52-16.25,3.68-19.71,13.86-3.46,10.18-.25,20.48,7.17,23,7.42,2.52,16.25-3.68,19.71-13.86,3.46-10.18.25-20.48-7.17-23Z" style="fill: #010101;"/>
</svg>