<?xml version="1.0" encoding="UTF-8"?>
<svg id="Calque_1" data-name="Calque 1" xmlns="http://www.w3.org/2000/svg" viewBox="0 0 446 300.64">
  <circle cx="349.92" cy="83.37" r="83.37" style="fill: #e9f5f5;"/>
  <rect y="141.59" width="446" height="159.05" style="fill: #7ecde7;"/>
  <polygon points="41.52 252.03 66.68 164.46 99.17 180.09 99.17 300.64 28.74 300.64 41.52 252.03" style="fill: #98d5ea;"/>
  <polygon points="164.45 164.46 99.17 180.09 99.17 300.64 185.45 300.64 164.45 164.46" style="fill: #aeddee;"/>
  <polygon points="99.17 180.09 99.17 73.61 142.31 83.37 164.45 164.46 99.17 180.09" style="fill: #e9f5f5;"/>
  <polygon points="105.45 21.82 76.68 73.61 66.68 164.46 99.17 180.09 105.45 21.82" style="fill: #7ac8c9;"/>
  <polygon points="142.31 83.37 105.45 21.82 103.36 74.56 142.31 83.37" style="fill: #c5e5e7;"/>
  <polygon points="164.45 300.64 185.45 195.92 223 203.11 231.57 300.64 164.45 300.64" style="fill: #98d5ea;"/>
  <polygon points="223 27.57 185.45 195.92 223 203.11 223 27.57" style="fill: #7ac8c9;"/>
  <polygon points="281.57 187.28 223 203.11 231.57 300.64 315.52 297.85 281.57 187.28" style="fill: #aeddee;"/>
  <polygon points="223 27.57 281.57 187.28 223 203.11 223 27.57" style="fill: #e9f5f5;"/>
  <g>
    <path d="M348.97,166.76c-3.82.33-7.65.66-11.38,1.53-4.13.97-8.07,2.58-12,4.19-1.98.81-4.16,1.82-4.91,3.82-.6,1.6-.1,3.38.43,5,4.61,14.13,11.42,27.53,20.13,39.57,1.65,2.28,3.39,4.54,5.55,6.34,2.33,1.93,5.08,3.27,7.84,4.52,2.2.99,5.06,1.83,6.8.16.37-.35.65-.8,1.09-1.06.55-.33,1.26-.31,1.83-.59.44-.22.78-.6,1.1-.98,5.54-6.5,9.57-14.28,11.7-22.55,2.61-10.12,2.36-20.67,2.12-31.03-.07-3.15.25-7.12-2.49-9.33-2.78-2.25-6.98-1.38-10.21-1.1-5.79.5-11.79,1.51-17.6,1.51Z" style="fill: #bfe4f1;"/>
    <path d="M329.71,124.19c-2.08,1.35-4.04,2.94-5.47,4.97-3.07,4.36-3.25,10.13-2.53,15.41.47,3.45,1.29,6.89,2.9,9.97,1.62,3.08,4.09,5.79,7.26,7.24,3.76,1.72,8.09,1.53,12.22,1.3,6.74-.37,13.49-.75,20.23-1.12,1.59-.09,3.19-.18,4.7-.68,3.91-1.3,6.4-5.03,8.59-8.53.9-1.43,1.82-2.91,2.19-4.56.22-.98.25-1.98.24-2.98-.01-4.44-.58-8.92-2.21-13.04-1.63-4.12-4.4-7.88-8.18-10.21-11-6.79-29.58-4.49-39.95,2.23Z" style="fill: #fff;"/>
    <g>
      <path d="M351.57,160.05c31.28-4.42,27.14-23.57,22.96-29.6-4.18-6.03-11.35-8.29-16.03-5.05-3.88,2.69-4.82,8.31-2.64,13.59l-5.24,3.4-5.58-2.82c1.59-5.48.06-10.98-4.09-13.23-5-2.72-11.89.3-15.4,6.74-3.51,6.44-5.56,25.93,26.01,26.96ZM361.6,132.42c1.36-.67,3.21.31,4.12,2.18.91,1.87.55,3.92-.81,4.59-1.36.67-3.21-.31-4.12-2.18-.91-1.87-.55-3.92.81-4.59ZM334.62,136.12c.56-2,2.2-3.29,3.66-2.88,1.46.41,2.19,2.37,1.63,4.37-.56,2-2.2,3.29-3.66,2.88-1.46-.41-2.19-2.37-1.63-4.37Z" style="fill: none;"/>
      <path d="M364.91,139.19c1.36-.67,1.73-2.72.81-4.59-.91-1.87-2.76-2.84-4.12-2.18-1.36.67-1.73,2.72-.81,4.59.91,1.87,2.76,2.84,4.12,2.18Z" style="fill: #010101;"/>
      <path d="M339.91,137.6c.56-2-.16-3.96-1.63-4.37-1.46-.41-3.1.88-3.66,2.88-.56,2,.16,3.96,1.63,4.37,1.46.41,3.1-.88,3.66-2.88Z" style="fill: #010101;"/>
    </g>
    <path d="M358.5,125.4c-3.88,2.69-4.82,8.31-2.64,13.59l-5.24,3.41-5.58-2.82c1.59-5.48.06-10.98-4.09-13.23-5-2.72-11.89.3-15.4,6.74-3.51,6.44-5.56,25.93,26.01,26.96,31.28-4.42,27.14-23.57,22.96-29.6-4.18-6.03-11.35-8.29-16.03-5.05Z" style="fill: none;"/>
    <path d="M349.71,172.17s-15.37,10.79-24.29,9.65c0,0,9.81,37.69,36.01,44.81,20.95-17.27,14.39-55.66,14.39-55.66-7.66,4.71-26.11,1.2-26.11,1.2Z" style="fill: none;"/>
    <path d="M386.42,227.84c3.92-4.87,5.92-9.84,6.72-14.55-3.31,1.05-7.3,1.29-10.05-1.05-2.04-2.18-2.03-5.28-2.1-8.01,0-2.07.15-4.1.22-6.11.08-4-.33-8.08-.75-12.07.85,4,1.72,7.95,2.02,12.06.29,3.1-.18,10.93,2.67,12.55.67.28,1.48.38,2.35.36,5.52-.15,10.21-4.27,11.21-9.69.84-4.54.14-11.31-4.8-21.13-1.23-2.45-2.32-6.7-3.33-11.21h-80.15c-2.81,5.45-6.32,13.84-7,22.65-.71,9.25,3.69,18.27,11.7,22.94.28.16.56.32.85.47,1.96,1.04,4.15,1.66,6.09,1.13,4.39-1.35,5.47-7.27,3.86-11.12-1.52-4.64-2.64-9.37-3.69-14.13,1.4,4.63,2.88,9.27,4.74,13.73.53,1.15.96,2.4,1.07,3.66.65,5.79-3.14,11.35-9.43,10.4-5.19-.92-9.94-4.18-13.82-8.18-.08,7.92,2.01,23.03,17.82,31.04,0,0-8.33,6.17-8.54,11.79,0,0,20.75-1.28,30.12-11.46l22.71-4.89c12.72,5.42,32.17-1.95,32.17-1.95-2.51-5.04-12.63-7.23-12.63-7.23ZM361.44,226.64c-26.2-7.12-36.01-44.81-36.01-44.81,8.92,1.14,24.29-9.65,24.29-9.65,0,0,18.45,3.51,26.11-1.2,0,0,6.56,38.39-14.39,55.66Z" style="fill: #98d5ea;"/>
    <path d="M386.91,153.5c-1.58-4.56-2.83-8.34-3.39-11.76-.7-4.27-2.11-8.41-4.31-12.14-10.37-17.63-30.15-16.21-30.15-16.21,0,0-19.82.72-28.24,19.36-1.78,3.94-2.74,8.21-2.98,12.53-.31,5.69.57,8.56-3.81,17.45,0,0-1.63,2.39-3.62,6.26l39.31,3.19,40.85-3.19c-1.31-5.85-2.49-12.13-3.65-15.49ZM351.57,160.05c-31.57-1.03-29.52-20.52-26.01-26.96,3.51-6.44,10.4-9.46,15.4-6.74,4.14,2.25,5.68,7.75,4.09,13.23l5.58,2.82,5.24-3.41c-2.17-5.28-1.23-10.91,2.64-13.59,4.68-3.24,11.85-.98,16.03,5.05,4.18,6.03,8.31,25.18-22.96,29.6Z" style="fill: #010101;"/>
  </g>
</svg>